<svg xmlns="http://www.w3.org/2000/svg" xmlns:xlink="http://www.w3.org/1999/xlink" viewBox="0 0 1093.98 798.15"><defs><style>.cls-1,.cls-17,.cls-27{opacity:0.1;}.cls-2{fill:#444;}.cls-3{fill:url(#Unbenannter_Verlauf_4);}.cls-4{fill:#f6f7f9;}.cls-5{fill:#dde1ec;}.cls-6{fill:#6c63ff;}.cls-7{fill:#7fc15e;}.cls-8{fill:#e8eaf1;}.cls-9{fill:#ff5252;}.cls-10{fill:#ff0;}.cls-11{fill:#69f0ae;}.cls-12,.cls-27{fill:#fff;}.cls-13{fill:url(#Unbenannter_Verlauf_4-2);}.cls-14{fill:url(#Unbenannter_Verlauf_4-3);}.cls-15{fill:#e0a17e;}.cls-16{fill:#f0f1f5;}.cls-17,.cls-19,.cls-22,.cls-27{isolation:isolate;}.cls-18{fill:#293158;}.cls-19{opacity:0.02;}.cls-20{fill:#463e3b;}.cls-21{fill:#cd9494;}.cls-22{opacity:0.05;}.cls-23{fill:#ff7361;}.cls-24{fill:none;stroke:#535461;stroke-miterlimit:10;}.cls-25{fill:url(#Unbenannter_Verlauf_4-4);}.cls-26{fill:#febdd5;}.cls-28{fill:#efc8c4;}.cls-29{fill:#727a9c;}.cls-30{fill:#ffb9b9;}.cls-31{fill:#cbcdda;}.cls-32{fill:#4c4c78;}.cls-33{fill:#424242;}.cls-34{fill:#b96b6b;}</style><linearGradient id="Unbenannter_Verlauf_4" x1="639.04" y1="57.21" x2="639.04" y2="678.71" gradientTransform="matrix(1, 0, 0, -1, -53, 678.71)" gradientUnits="userSpaceOnUse"><stop offset="0" stop-color="gray" stop-opacity="0.25"/><stop offset="0.54" stop-color="gray" stop-opacity="0.12"/><stop offset="1" stop-color="gray" stop-opacity="0.1"/></linearGradient><linearGradient id="Unbenannter_Verlauf_4-2" x1="319.05" y1="419.95" x2="319.05" y2="517.46" xlink:href="#Unbenannter_Verlauf_4"/><linearGradient id="Unbenannter_Verlauf_4-3" x1="-119.43" y1="424.91" x2="-119.43" y2="483.5" gradientTransform="translate(147.05 678.71) rotate(180)" xlink:href="#Unbenannter_Verlauf_4"/><linearGradient id="Unbenannter_Verlauf_4-4" x1="803.66" y1="-67.21" x2="803.66" y2="545.12" xlink:href="#Unbenannter_Verlauf_4"/></defs><title>ill_1</title><g id="Ebene_2" data-name="Ebene 2"><g id="eb784e0d-05db-44e6-8395-40b319063039"><g class="cls-1"><path class="cls-2" d="M66.38,119.37c10.2,17.75,4.55,40.79-6.53,58S33,208.24,20.73,224.66c-24.41,32.76-30.72,84.49.06,111.41,6.63,5.8,14.83,10.39,18.87,18.21,5.58,10.79,1.45,23.79-2.76,35.22l-.35.94C20.64,433.57,44.08,481.37,88,494.9c24.31,7.49,46.25,19.63,62.49,39.26,14.19,17.16,22.39,38.33,31.75,58.53,16.92,36.49,38.76,71.38,68.94,98S320.75,734.82,361,733.37c91.82-3.31,159.43-100,251.16-105.09,6.61-.37,13.65-.12,19.18,3.52,7.8,5.14,10.19,15.23,13.47,24,17.37,46.43,69.67,67.83,116.5,84.09l88,30.58c47.8,16.6,98,33.45,148,25.76s98.82-48.75,96.65-99.31c-1.78-41.53-36.2-78.08-31.69-119.41,3.12-28.56,24.51-52.55,28.09-81.06,3.73-29.67-12.49-58.16-31.16-81.52-53.72-67.24-130.28-111.56-205-154.31-52.63-30.12-105.53-60.36-162.19-82-139.68-53.21-293.2-50.92-442-65.44-25.59-2.5-52.34-5.44-75.79-16.75-18-8.68-32.07-28.75-51.82-33C107.3,60.19,85,66.88,71.9,74.19,48,87.61,54.55,98.78,66.38,119.37Z"/></g><path class="cls-3" d="M987.88,0H184.19a28,28,0,0,0-27.88,28.12V593.35a28,28,0,0,0,27.85,28.15H987.88a28,28,0,0,0,27.88-28.12V28.15A28,28,0,0,0,987.91,0Z"/><path class="cls-4" d="M1012.13,59.88V586.61a27.64,27.64,0,0,1-27.64,27.64H187.9a27.64,27.64,0,0,1-27.64-27.64h0V59.88Z"/><path class="cls-5" d="M368.35,331.37V614.24H187.9c-15.26,0-27.64-12.62-27.64-28.18V331.37Z"/><rect class="cls-5" x="430.13" y="124.37" width="346.82" height="9.75"/><rect class="cls-5" x="430.13" y="193.73" width="209.17" height="9.75"/><rect class="cls-5" x="685.91" y="193.73" width="70.45" height="9.75"/><g class="cls-1"><rect class="cls-6" x="224.2" y="437.04" width="70.45" height="9.75"/></g><rect class="cls-5" x="685.91" y="284.77" width="70.45" height="9.75"/><rect class="cls-5" x="685.91" y="375.81" width="70.45" height="9.75"/><rect class="cls-5" x="685.91" y="224.08" width="70.45" height="9.75"/><rect class="cls-5" x="807.29" y="224.08" width="70.45" height="9.75"/><rect class="cls-5" x="685.91" y="254.42" width="70.45" height="9.75"/><rect class="cls-5" x="807.29" y="254.42" width="70.45" height="9.75"/><rect class="cls-5" x="807.29" y="310.78" width="70.45" height="9.75"/><rect class="cls-5" x="807.29" y="341.13" width="70.45" height="9.75"/><rect class="cls-5" x="807.29" y="406.16" width="70.45" height="9.75"/><rect class="cls-5" x="430.13" y="224.08" width="209.17" height="9.75"/><rect class="cls-5" x="430.13" y="254.42" width="209.17" height="9.75"/><rect class="cls-5" x="430.13" y="284.77" width="209.17" height="9.75"/><rect class="cls-5" x="430.13" y="315.12" width="209.17" height="9.75"/><rect class="cls-5" x="430.13" y="345.46" width="209.17" height="9.75"/><rect class="cls-5" x="430.13" y="375.81" width="209.17" height="9.75"/><rect class="cls-5" x="430.13" y="406.16" width="209.17" height="9.75"/><rect class="cls-7" x="160.26" y="59.34" width="208.09" height="277.45"/><path class="cls-8" d="M1012.13,31.7A27.64,27.64,0,0,0,984.49,4.07H187.9a27.64,27.64,0,0,0-27.64,27.64h0V63.14h851.87Z"/><circle class="cls-9" cx="193.86" cy="33.33" r="10.84"/><circle class="cls-10" cx="229.62" cy="33.33" r="10.84"/><circle class="cls-11" cx="265.39" cy="33.33" r="10.84"/><path class="cls-12" d="M325,198.07a60.41,60.41,0,0,1-13.52,38.17c-.33.41-.66.81-1,1.21h0a1.64,1.64,0,0,0-.18.22,61,61,0,0,1-10.47,9.59l-.5.37c-.69.49-1.39,1-2.1,1.42l-.49.31-1,.65a5.33,5.33,0,0,1-.48.27,3.21,3.21,0,0,1-.41.25q-2.31,1.35-4.76,2.49c-.18.1-.38.18-.57.27s-.41.2-.63.28-.65.29-1,.42a59.06,59.06,0,0,1-10.83,3.4,60.5,60.5,0,0,1-10.75,1.31h-2a60.59,60.59,0,0,1-14.17-1.63l-.87-.21q-3.06-.8-6-1.86c-1.19-.44-2.37-.92-3.52-1.43l-.86-.39-.87-.39-.76-.39h0l-.8-.41-.89-.47-1-.57-.16-.09a60.93,60.93,0,0,1-11.78-8.71c-.3-.29-.61-.57-.9-.88s-.63-.62-.93-.94A60.69,60.69,0,1,1,325,198.07Z"/><path class="cls-13" d="M307,219.69a17.33,17.33,0,0,1-.59,2.67,2.47,2.47,0,0,1-.13.4c0-.38-.07-.78-.09-1.21h0c-.3-4.45-.56-11.48.34-15.64.85-3.91-5.34-2.72-9.47.78h0a10.89,10.89,0,0,0-2.88,3.61l-.28-.35a10.9,10.9,0,0,0-8.2-4,27.91,27.91,0,0,1-17.43-7.64c-.2-.81-.35-1.61-.47-2.42a6.63,6.63,0,0,0-.11-.76,15.07,15.07,0,0,0,4.63-7.81v-.12a15.1,15.1,0,0,0,.38-3.32,11.83,11.83,0,0,0,0-1.34,1.64,1.64,0,0,0,0-.49c0-.16,0-.38-.08-.56a6.61,6.61,0,0,0,.73-.38,8.38,8.38,0,0,0,3.24-3.67v-.08a13.83,13.83,0,0,0,.64-1.66h0a20.07,20.07,0,0,0,.83-5V170c0-1.31-.26-2.95-1.54-3.22-1.69-.36-2.92,2.19-4.63,1.92a2.6,2.6,0,0,1-1.34-.81c-1.16-1.15-1.94-2.63-3.1-3.79a10.6,10.6,0,0,0-6.62-2.81,25,25,0,0,0-7.28.67,12.26,12.26,0,0,0-3.76,1.28,4.48,4.48,0,0,0-2.25,3.09,4.41,4.41,0,0,0,0,.85v1.29a4.8,4.8,0,0,1-.07.55,4.57,4.57,0,0,1-2.31,2.76c-1.06.63-2.24,1.07-3.25,1.79a8.51,8.51,0,0,0-3.13,5,13.22,13.22,0,0,0-.35,3.39,22.43,22.43,0,0,0,.17,3.08,33.06,33.06,0,0,0,2.86,9.92,15.84,15.84,0,0,0,1.42,2.5h0a6.17,6.17,0,0,0,.43.55,15.09,15.09,0,0,0,3.23,2.73l.69.47a2,2,0,0,0,1.71.44,1.82,1.82,0,0,0,.52-.3,4,4,0,0,0,1.25-3.15V198a1,1,0,0,1,0,.17,1.64,1.64,0,0,1,0,.23h.1a14.81,14.81,0,0,1,0,1.53,5.59,5.59,0,0,1,0,.62v.35l-.16.14h0c-.33.28-.93.77-1.76,1.42h0a52.89,52.89,0,0,1-11.24,6.69,16,16,0,0,0-9.21,10.23,35.89,35.89,0,0,1-4.37,9.47c-.48.7-1.8,6-3.34,11.44.3.33.62.64.93.94l.9.88a60.93,60.93,0,0,0,11.78,8.71l.16.09,1,.57.89.47c0-.75-.1-1.44-.15-2.09a9.92,9.92,0,0,0-.1-1.12c.23-.38.43-.72.62-1,0,.29.07.61.1,1h0c.11,1,.22,2.23.34,3.64a10.33,10.33,0,0,0,.1,1.4c0-.49,0-1-.09-1.4l.76.39.87.39c.28.14.56.26.86.39,1.15.51,2.33,1,3.52,1.43a61.56,61.56,0,0,0,6,1.86l.87.21a60.59,60.59,0,0,0,14.19,1.67h2A60.5,60.5,0,0,0,277,257.41a59.06,59.06,0,0,0,10.83-3.4l1-.42.63-.28c.21-.1.39-.17.57-.27-1-3.51-1.54-5.76-1.54-5.76l1.32-3.39.16-.41.4-1h0a1.15,1.15,0,0,0,.11.39h0a15.93,15.93,0,0,0,4.7,7.49,5.33,5.33,0,0,0,.48-.27l1-.65.49-.31c.72-.47,1.41-.93,2.1-1.42l.5-.37a61,61,0,0,0,10.47-9.59l.18-.22h0c.34-.4.67-.8,1-1.21Zm-8.72,4.56.09.15-.08-.07Z"/><path class="cls-14" d="M298.45,222.38v.08l.07.07C298.5,222.47,298.47,222.43,298.45,222.38Zm-61.16,30c-.1-1.4-.2-2.66-.29-3.74-.07-.76-.14-1.44-.2-2a.18.18,0,0,1,0-.08v-.4a23,23,0,0,0-2.36,4.7l.16.09,1,.57.89.47.8.41a10.32,10.32,0,0,0,.1,1.4c-.05-.48-.07-.94-.1-1.39Zm13.31-57.17h0l0,.09h0a.23.23,0,0,1,0,.07.39.39,0,0,0,0-.13Z"/><path class="cls-15" d="M268,185s-3.61,16.22,6.31,24.79S250.89,225.07,245,217.9s4.08-10.83,4.08-10.83,5-4.06,0-16.22Z"/><path class="cls-16" d="M277,257.41a60.5,60.5,0,0,1-10.75,1.31h-2a60.59,60.59,0,0,1-14.16-1.65l-.87-.21q-3.06-.8-6-1.86l-1-15,4.34-20.77L249.14,207l.72-3.42.73,1,.16.22.2.26,8,10.65,8.19-8.82.42-.46,2.25-2.43.85-.91.4,3.09,1.44,11.11,2.67,20.49Z"/><path class="cls-17" d="M299.33,247.63c-.69.49-1.39,1-2.1,1.42l-.49.31-1,.65a5.33,5.33,0,0,1-.48.27,3.21,3.21,0,0,1-.41.25,16.08,16.08,0,0,1-4.79-7.06,11,11,0,0,1-.3-1.06,1,1,0,0,1,0-.17l-.57,1.5-1.75,4.33s.52,2.12,1.45,5.48q-.49.23-1,.42a59.06,59.06,0,0,1-10.83,3.4,60.5,60.5,0,0,1-10.75,1.31h-.55a99.44,99.44,0,0,1-.53-14l1.32-25.17.67-12.7.37-7s.13.14.38.37l.72.67h0a27,27,0,0,0,16,6.61,10.62,10.62,0,0,1,8.32,4.42,19.59,19.59,0,0,1,3.39,8.65l.3,2.75h0l.08.78.11,1Z"/><path class="cls-18" d="M299.83,247.27l-.5.37c-.69.49-1.39,1-2.1,1.42l-.49.31-1,.65a16.58,16.58,0,0,1-5.18-7.22h0a2.77,2.77,0,0,1-.12-.36c-.11-.35-.21-.72-.29-1.08l-.41,1.07-.56,1.45-1.28,3.34s.59,2.4,1.63,6.1c-.21.1-.41.2-.63.28s-.65.29-1,.42a59.06,59.06,0,0,1-10.83,3.4,60.5,60.5,0,0,1-10.75,1.31,99.49,99.49,0,0,1-.63-14.92l1.28-24.39.68-13,.33-6.13L268,199l.17.17a27.09,27.09,0,0,0,17,7.49A10.62,10.62,0,0,1,293.4,211a19.54,19.54,0,0,1,3.48,8.76l.53,4.93v.07h0l.11,1Z"/><path class="cls-17" d="M251.21,202.07v.61l-.16,2.32-.56,7.94s-.33,2.29-.57,7.45c-.35,6.8-.56,18.58.25,36.7l-.87-.21q-3.06-.8-6-1.86c-1.19-.44-2.37-.92-3.52-1.43l-.86-.39c-.29-4-.64-6.45-.64-6.45a11.68,11.68,0,0,0-.68,1c-.17.27-.38.6-.6,1l0,.09h0q-.29.5-.62,1.14a17,17,0,0,0-.74,1.63l-1-.57-.16-.09a60.93,60.93,0,0,1-11.78-8.71c1.61-5.67,3-11.37,3.5-12.1a34.76,34.76,0,0,0,4.25-9.27,15.71,15.71,0,0,1,9-10,36.5,36.5,0,0,0,11.79-8.8h0Z"/><path class="cls-18" d="M251.22,201.79a54.08,54.08,0,0,1-12.81,8.07,15.71,15.71,0,0,0-9,10,34.76,34.76,0,0,1-4.25,9.27c-.49.73-1.89,6.44-3.5,12.12.29.3.6.59.9.88a60.93,60.93,0,0,0,11.78,8.71l.16.09a22.88,22.88,0,0,1,2.2-4.24l0-.08c.35-.52.57-.8.57-.8s.09.66.22,1.85.3,3,.46,5.1l.87.39c.28.14.56.26.86.39,1.15.51,2.33,1,3.52,1.43a61.54,61.54,0,0,0,6,1.86c-.82-17.94-.64-29.76-.31-36.73.26-5.62.61-8.11.61-8.11l1.27-7.3.36-2.06.17-1Z"/><path class="cls-17" d="M257.65,200.78a14.81,14.81,0,0,1-6.49-1.49,29.17,29.17,0,0,0-2.07-7.53L268,185.91a36.22,36.22,0,0,0-.39,11A14.82,14.82,0,0,1,257.65,200.78Z"/><circle class="cls-15" cx="257.65" cy="185.01" r="14.87"/><g class="cls-1"><path d="M287.87,254c-1.17-4.11-1.82-6.81-1.82-6.81l2.25-5.86a12.65,12.65,0,0,0,.77,2.4l0,.13-1.28,3.34s.59,2.4,1.63,6.1c-.21.1-.41.2-.63.28S288.19,253.88,287.87,254Z"/></g><path class="cls-15" d="M305.42,226s-1.35-13.07,0-19.38-15.77.9-12.17,9.46a73.58,73.58,0,0,0,7.21,13.52Z"/><path class="cls-17" d="M310.3,237.67a61,61,0,0,1-10.47,9.59l-.5.37c-.69.49-1.39,1-2.1,1.42a42.26,42.26,0,0,1-4.3-6.13l-.13-.23,3.61-18.93.38.39c.16.15.37.35.62.55h0c1.87,1.6,5.82,4,7.72-1.58a16.85,16.85,0,0,0,.69-3l.37,1.38h0l.22.81,4,15.09h0Z"/><path class="cls-18" d="M310.3,237.67a61,61,0,0,1-10.47,9.59l-.5.37c-.69.49-1.39,1-2.1,1.42l-.49.31a43.62,43.62,0,0,1-3.94-5.78l.13-.67,3.48-18.26s.18.21.49.5l.62.55a9.83,9.83,0,0,0,.89.68h0c2.07,1.42,5.22,2.49,6.82-2.5a16.89,16.89,0,0,0,.64-2.84l.46,1.7Z"/><path class="cls-19" d="M310.3,237.67a61,61,0,0,1-10.47,9.59l-.5.37c-.69.49-1.39,1-2.1,1.42l-.49.31a43.62,43.62,0,0,1-3.94-5.78l.13-.67,3.48-18.26s.18.21.49.5l.62.55a9.83,9.83,0,0,0,.89.68h0c2.07,1.42,5.22,2.49,6.82-2.5a16.89,16.89,0,0,0,.64-2.84l.46,1.7Z"/><path class="cls-17" d="M236.8,246.65l0,.08v-.15c.63-2.19,1.2-3.67,1.71-4.11,0,0,.67,4.45,1.27,11.12l-.86-.39-.87-.39c-.15-2.15-.31-3.9-.46-5.1s-.22-1.85-.22-1.85S237.15,246.13,236.8,246.65Z"/><path class="cls-17" d="M257.83,180.91a4.08,4.08,0,0,1,2.55-.46,2.91,2.91,0,0,1,1,.7c1.17,1.11,2.33,2.4,3.91,2.74a7.56,7.56,0,0,0,2.93-.13,14,14,0,0,0,4.82-1.47c3.35-2,4.42-6.33,4.63-10.22.07-1.31-.2-3-1.49-3.28-1.64-.35-2.84,2.14-4.5,1.87a2.51,2.51,0,0,1-1.3-.79c-1.13-1.13-1.9-2.58-3-3.72a10.31,10.31,0,0,0-6.44-2.76,24.08,24.08,0,0,0-7.09.67,11.65,11.65,0,0,0-3.65,1.25,4.39,4.39,0,0,0-2.2,3c-.11.87.12,1.77,0,2.63a4.42,4.42,0,0,1-2.24,2.71,33.05,33.05,0,0,0-3.16,1.76,8.37,8.37,0,0,0-3,4.86,16.46,16.46,0,0,0-.16,5.83,32.28,32.28,0,0,0,2.78,9.72,13.77,13.77,0,0,0,1.81,3,16.81,16.81,0,0,0,3.65,3,2.22,2.22,0,0,0,1.83.55,1.59,1.59,0,0,0,.51-.3c1.28-1.07,1.4-3,1-4.63a26,26,0,0,1-1.16-4.84,2.33,2.33,0,0,1,.26-1.35,6,6,0,0,1,.9-.91,5.44,5.44,0,0,0,1-1.69,16.53,16.53,0,0,0,1.55-4.86,6.55,6.55,0,0,0-.87-4A5.17,5.17,0,0,0,257.83,180.91Z"/><path class="cls-20" d="M257.83,180.39a4.08,4.08,0,0,1,2.55-.46,2.91,2.91,0,0,1,1,.7c1.17,1.11,2.33,2.4,3.91,2.74a7.56,7.56,0,0,0,2.93-.13,14,14,0,0,0,4.82-1.47c3.35-2,4.42-6.33,4.63-10.22.07-1.31-.2-3-1.49-3.28-1.64-.35-2.84,2.14-4.5,1.87a2.51,2.51,0,0,1-1.3-.79c-1.13-1.13-1.9-2.58-3-3.72a10.31,10.31,0,0,0-6.44-2.76,24.08,24.08,0,0,0-7.09.67,11.65,11.65,0,0,0-3.65,1.25,4.39,4.39,0,0,0-2.2,3c-.11.87.12,1.77,0,2.63a4.42,4.42,0,0,1-2.24,2.71,33.05,33.05,0,0,0-3.16,1.76,8.37,8.37,0,0,0-3,4.86,16.46,16.46,0,0,0-.16,5.83,32.28,32.28,0,0,0,2.78,9.72,13.77,13.77,0,0,0,1.81,3,16.81,16.81,0,0,0,3.65,3,2.22,2.22,0,0,0,1.83.55,1.59,1.59,0,0,0,.51-.3c1.28-1.07,1.4-3,1-4.63a26,26,0,0,1-1.16-4.84,2.33,2.33,0,0,1,.26-1.35,6,6,0,0,1,.9-.91,5.44,5.44,0,0,0,1-1.69,16.53,16.53,0,0,0,1.55-4.86,6.55,6.55,0,0,0-.87-4A5.17,5.17,0,0,0,257.83,180.39Z"/><ellipse class="cls-21" cx="176.01" cy="557.1" rx="25.19" ry="9.25"/><ellipse class="cls-22" cx="176.01" cy="556.07" rx="12.85" ry="4.72"/><path class="cls-23" d="M150.81,555.07s27.76,15.42,50.38,2.06c0,0-3.08,53.47-18.51,58.61H162.13S144.65,579.71,150.81,555.07Z"/><path class="cls-7" d="M197.76,457.07c7.07,25.83-23.07,99.41-23.07,99.41s-63.39-48-70.46-73.82a48.48,48.48,0,1,1,93.53-25.59Z"/><path class="cls-17" d="M197.86,457.07c7.07,25.83-23.07,99.41-23.07,99.41s-63.39-48-70.46-73.82a48.48,48.48,0,1,1,93.53-25.59Z"/><path class="cls-24" d="M138.46,423.24S177.92,482.81,175,556.61"/><path class="cls-7" d="M207.83,504.27S172,484.8,176.58,556.66c0,0,29.85-1.07,40.44-25.42a21.12,21.12,0,0,0-8.66-26.67Z"/><path class="cls-24" d="M208.42,504.39s-4.62,37.3-31.84,52.27"/><path class="cls-22" d="M197.83,558.84c-1,12.3-5.31,50.5-18.22,54.81H161.18c.59,1.31.95,2.06.95,2.06H182.7c15.41-5.15,18.5-58.64,18.5-58.64A37.43,37.43,0,0,1,197.83,558.84Z"/><rect class="cls-5" x="430.13" y="472.81" width="209.17" height="121.39"/><path class="cls-25" d="M982.84,233.21a8.77,8.77,0,0,0,0-1.18c-.36-4.88-5-8.41-9.6-10.29s-9.74-2.8-13.81-5.65c-6.88-4.82-9-13.83-9.62-22.07-.19-2.56-.27-5.12-.28-7.69s.16-5.41.4-8.11a135.18,135.18,0,0,0,1-13.61,26.15,26.15,0,0,0-2.4-12.45c-4.08-8.06-13.24-12.18-21.72-15.69-3.26-1.35-6.6-2.72-10.14-2.87-3.74-.16-7.38,1.05-10.92,2.25-5.62,1.9-11.32,4.37-17.13,5.66-3.26.72-6.83.18-10,1.33-6.22,2.28-7.55,7.87-7.45,14V158c-.62-.57-1.26-1.11-1.91-1.63l-.38-.3a23.11,23.11,0,0,0-2.13-1.53l-.36-.23a35.84,35.84,0,0,0-4.79-2.61l-.25-.11q-1.25-.55-2.54-1l-.16-.06a36.46,36.46,0,0,0-5.46-1.44h0a36.37,36.37,0,0,0-32.52,10.22l-6.87,7h0c-31.23-7-32.63,20.13-32.63,20.13l.23-.05-.08.19A96.43,96.43,0,0,0,784,196.74L542.84,443.07l-24.38,75.56,13.69-4.88,62.54-22.34L818.63,262.65c16.76,11.91,34.18,27.87,34.18,27.87s-10.8,5.71-6.8,31.87c4.89,32-2.46,77.55-2.46,77.55V429.4l1.38-.38c-.17,1-.35,2-.52,3.15a168.08,168.08,0,0,0-.86,44.72c3.7,31.26,18.48,73.94,18.48,73.94s5.54,15,6.78,27a25.22,25.22,0,0,0,1.58,7,55.26,55.26,0,0,1,4.32,20.87c0,13.08,1.71,32.71,9.5,52.74,6.25,16.08,8.56,25.5,9.25,31-4.43,5.86-10.22,12.25-14.79,12.89-8.62,1.2-25.26,2.4-14.17,16.83a10.21,10.21,0,0,0,1.29,1.37c-8.42,1.36-17.68,4.36-8.68,16.06,11.09,14.43,76.39,7.82,76.39,7.82s.42-8,0-16.82c4.58-.32,7.41-.61,7.41-.61s1.85-34.87-6.16-39.08a16.9,16.9,0,0,0-4.32,1.06c-.86-4.82-1.52-10.81-1.93-15.25l3.17-.24v-52.3s-3.7-32.46-17.25-46.89a29.15,29.15,0,0,1-4.43-6c.1-4.17.11-10,.06-16.73A13.89,13.89,0,0,1,912,549s7.39-9,32.65-66.13c14.9-33.69,11.58-53.14,6.35-63.44-1-3.66-3.6-14.11-7-33.35-4.31-24.65.62-48.7.62-48.7s16-41.48,23.41-58.31a27.39,27.39,0,0,0,2.08-12.85c1.93-1.41,2.86-3.76,3.69-6L981.35,240c.82-2.19,1.66-4.47,1.48-6.8ZM879.76,196.75a30.8,30.8,0,0,0,2.75,3.66h0s-1.13-1.18-3-3.08C879.6,197.14,879.68,196.94,879.76,196.75Zm-37.32,41.57L863.33,217c7.22,6.6,15,13.34,21.41,18.89a61.84,61.84,0,0,1-2.44,8.37c-2.8,1.39-6.5,1.84-11-.61C864.17,239.78,851,238.64,842.44,238.32Z"/><path class="cls-26" d="M825.63,159.57s-15.49,8.94-10.72,21.5c0,0,16.09,4.77,22.64,16.69s57.21,54.82,57.21,54.82l36.94-18.51s-12.85-17.16-53.5-29.14c0,0-24-25.69-32.31-30.45S825.63,159.57,825.63,159.57Z"/><path class="cls-22" d="M825.63,159.57s-15.49,8.94-10.72,21.5c0,0,16.09,4.77,22.64,16.69s57.21,54.82,57.21,54.82l36.94-18.51s-12.85-17.16-53.5-29.14c0,0-24-25.69-32.31-30.45S825.63,159.57,825.63,159.57Z"/><path class="cls-7" d="M549.63,445.44,818.41,164.07a34.68,34.68,0,0,1,49-1.12h0a34.68,34.68,0,0,1,1.12,49L599.79,493.36l-73.74,27Z"/><path class="cls-27" d="M852.76,158h0a34.68,34.68,0,0,1,1.12,49L585.11,488.33l-55.36,20.25L526,520.34l73.74-27L868.56,212.07a34.68,34.68,0,0,0-1.12-49h0a34.52,34.52,0,0,0-20.31-9.41A34.82,34.82,0,0,1,852.76,158Z"/><polygon class="cls-28" points="549.63 445.45 599.79 493.36 539.29 515.5 526.05 520.34 534.44 493.71 549.63 445.45"/><path class="cls-29" d="M534.44,493.7a14.75,14.75,0,0,1,5.16,2.07c1.82,1.31,3.14,3.58,2.64,5.76a13.82,13.82,0,0,1-2.08,3.77,11.77,11.77,0,0,0-.87,10.2L526,520.34Z"/><path class="cls-30" d="M922.17,667.87s1.79,26.22,4.77,29.2-26.82,4.77-26.82,4.77l4.17-34Z"/><path class="cls-22" d="M922.17,667.87s1.79,26.22,4.77,29.2-26.82,4.77-26.82,4.77l4.17-34Z"/><path class="cls-31" d="M928.72,688.13s-4.17,0-19.07,7.75c0,0-10.13-1.79-14.3-16.09,0,0-12.51,21.45-20.86,22.64s-24.43,2.38-13.71,16.69,73.89,7.75,73.89,7.75S936.47,692.3,928.72,688.13Z"/><path class="cls-22" d="M928.72,688.13s-4.17,0-19.07,7.75c0,0-10.13-1.79-14.3-16.09,0,0-12.51,21.45-20.86,22.64s-24.43,2.38-13.71,16.69,73.89,7.75,73.89,7.75S936.47,692.3,928.72,688.13Z"/><path class="cls-30" d="M919.78,708.39l-4.17,11.32L888.2,712l1.56-11.24.38-2.71,1-7.5s23.24-6,23.24-3a46.23,46.23,0,0,0,1.53,7.26c1,3.66,2.15,7.84,3,10.59C919.43,707.2,919.78,708.39,919.78,708.39Z"/><path class="cls-32" d="M904.83,553c-1.88,3.18-4,9.14,0,16.58a28.87,28.87,0,0,0,4.28,5.94C922.17,589.8,925.75,622,925.75,622v51.84l-8.94.69-14.3,1.1L881,587.43s-12.51-64.36-6.55-75.68,11.32-82.23,11.32-82.23l5-5.12,11.74-12.16h34a22.84,22.84,0,0,1,6.61,7.39c5.7,9.44,10.82,29.07-4.82,65.31-24.43,56.61-31.58,65.55-31.58,65.55A13.73,13.73,0,0,0,904.83,553Z"/><path class="cls-22" d="M904.83,553c-1.88,3.18-4,9.14,0,16.58a28.87,28.87,0,0,0,4.28,5.94C922.17,589.8,925.75,622,925.75,622v51.84l-8.94.69-14.3,1.1L881,587.43s-12.51-64.36-6.55-75.68,11.32-82.23,11.32-82.23l5-5.12,11.74-12.16h34a22.84,22.84,0,0,1,6.61,7.39c5.7,9.44,10.82,29.07-4.82,65.31-24.43,56.61-31.58,65.55-31.58,65.55A13.73,13.73,0,0,0,904.83,553Z"/><path class="cls-17" d="M916,694.79,890.14,698l1-7.5s23.24-6,23.24-3A46.23,46.23,0,0,0,916,694.79Z"/><path class="cls-32" d="M903.1,476.59s1.48,46.91,1.73,76.39c0,6.67,0,12.45,0,16.58a36.74,36.74,0,0,1-.48,6.54c-1.79,5.36,1.79,17.28,1.79,17.28,14.9,39.33,10.73,73.89,10.73,73.89v26.22l-28.62,3.58s4.77-3.58-8.34-38.14c-7.53-19.86-9.16-39.31-9.19-52.28A55.94,55.94,0,0,0,866.49,586a25.52,25.52,0,0,1-1.48-6.9c-1.19-11.92-6.55-26.82-6.55-26.82s-14.3-42.31-17.88-73.3a170.67,170.67,0,0,1,.83-44.33,110.62,110.62,0,0,1,2.15-11.09s58.25-36.66,80.25-11.32a28.69,28.69,0,0,1,5,8.34,55.06,55.06,0,0,1,2.81,9.28C938.38,463.49,903.1,476.59,903.1,476.59Z"/><circle class="cls-30" cx="901.31" cy="185.2" r="30.39"/><path class="cls-30" d="M884.63,204.26s12.51,35.16,0,53.63,39.92,12.51,39.92,12.51L944.81,246s-23.84,0-25-41.71S884.63,204.26,884.63,204.26Z"/><path class="cls-17" d="M944.81,426.53a78.2,78.2,0,0,1-13.28,3.33c-7.42,1.14-16.17,1.19-21.29-3.33-3-2.68-10.51-3-19.49-2.15-18.91,1.81-44.51,8.87-49.41,10.26a110.62,110.62,0,0,1,2.15-11.09s58.25-36.66,80.25-11.32h12.71a22.84,22.84,0,0,1,6.61,7.39C944.17,424.36,944.81,426.53,944.81,426.53Z"/><path class="cls-17" d="M919.78,708.39l-4.17,11.32L888.2,712l1.56-11.24c4.71,10.42,12.74,11.83,12.74,11.83,8.66-4.5,13.7-6.39,16.4-7.18C919.43,707.2,919.78,708.39,919.78,708.39Z"/><path class="cls-31" d="M921.57,705.41s-4.17,0-19.07,7.75c0,0-10.13-1.79-14.3-16.09,0,0-12.51,21.45-20.86,22.64s-24.43,2.36-13.7,16.69,73.89,7.75,73.89,7.75S929.32,709.58,921.57,705.41Z"/><path class="cls-30" d="M780.2,191s1.35-26.89,31.56-19.95L804,185.6Z"/><path class="cls-33" d="M921,253.13s-29.2-4.77-37-10.73c0,0-6,11.32-16.69,5.36s-35.75-5.36-35.75-5.36-20.86-11.32-25-37c0,0-4.17-15.49-3-19.66,0,0-15.49-16.09-23.24,5.36,3,14.9,5.36,13.71,4.77,25.62L794.68,243s.6,8.94,17.88,20.86,37,30.39,37,30.39-10.43,5.66-6.55,31.58c4.73,31.68-2.38,76.87-2.38,76.87v29.2s59.59-17.28,69.72-8.34,34.56,0,34.56,0-3-10.13-7.15-34.56.6-48.27.6-48.27S953.8,299.6,961,282.92s-5.36-39.33-17.88-47.67-17.17-3.33-17.17-3.33S947.79,247.77,921,253.13Z"/><path class="cls-17" d="M868.44,177.76a10.54,10.54,0,0,0,.62,3.64,11.48,11.48,0,0,0,2.79,3.47c4.46,4.36,8.38,9.54,10,15.58,1.06,4.09,1,8.37.94,12.6-.26,17.11-1,35.58-11.54,49-3.88,5-8.88,8.88-13.57,13.07a4.09,4.09,0,0,0-1.42,1.95,3.57,3.57,0,0,0,.44,2.36c2.18,4.53,6.77,7.31,11.12,9.83,2,1.15,4.08,2.34,6.38,2.41,5.42.18,9-5.55,13.93-7.8,7.18-3.28,15.23,1.28,22.36,4.68a78.79,78.79,0,0,0,16.14,5.63c7.63,1.76,16.25,2.19,22.67-2.28a17.31,17.31,0,0,0,7.06-11c.52-2.91.44-6.29,2.64-8.26,1.14-1,2.69-1.44,3.91-2.34,1.91-1.4,2.81-3.75,3.62-6l7.34-20.07a16.49,16.49,0,0,0,1.43-6.74c-.35-4.83-4.81-8.34-9.28-10.2s-9.42-2.77-13.36-5.6c-6.65-4.78-8.71-13.71-9.31-21.88a105.34,105.34,0,0,1,.12-16.85c.73-8.31,2.35-17.17-1.35-24.65-4-8-12.81-12.07-21-15.55-3.15-1.34-6.39-2.69-9.81-2.84-3.62-.16-7.14,1-10.56,2.23-5.44,1.89-11,4.33-16.57,5.61-3.15.72-6.61.18-9.65,1.32C863.31,153.23,868.44,168.77,868.44,177.76Z"/><path class="cls-34" d="M868.44,176.57a10.54,10.54,0,0,0,.62,3.64,11.48,11.48,0,0,0,2.79,3.47c4.46,4.36,8.38,9.54,10,15.58,1.06,4.09,1,8.37.94,12.6-.26,17.11-1,35.58-11.54,49-3.88,5-8.88,8.88-13.57,13.07a4.09,4.09,0,0,0-1.43,1.91,3.57,3.57,0,0,0,.44,2.36c2.18,4.53,6.77,7.31,11.12,9.83,2,1.15,4.08,2.34,6.38,2.41,5.42.18,9-5.55,13.93-7.8,7.18-3.28,15.23,1.28,22.36,4.68A78.79,78.79,0,0,0,926.57,293c7.63,1.76,16.25,2.19,22.67-2.28a17.31,17.31,0,0,0,7.06-11c.52-2.91.44-6.29,2.64-8.26,1.14-1,2.69-1.44,3.91-2.34,1.91-1.4,2.81-3.75,3.62-6L973.81,243a16.49,16.49,0,0,0,1.43-6.74c-.35-4.83-4.81-8.34-9.28-10.2s-9.42-2.77-13.36-5.6c-6.65-4.78-8.71-13.71-9.31-21.88a105.34,105.34,0,0,1,.12-16.85c.73-8.31,2.35-17.17-1.35-24.65-4-8-12.81-12.07-21-15.55-3.15-1.34-6.39-2.69-9.81-2.84-3.62-.16-7.14,1-10.56,2.23-5.44,1.89-11,4.33-16.57,5.61-3.15.72-6.61.18-9.65,1.32C863.31,152.07,868.44,167.58,868.44,176.57Z"/><path class="cls-22" d="M844.42,339.2s4.75-1.13,28.59-4.73,65.55,4.77,65.55,4.77"/></g></g></svg>