<svg xmlns="http://www.w3.org/2000/svg" viewBox="0 0 1055.72 260.4"><defs><style>.cls-1{fill:none;stroke:#efefef;stroke-miterlimit:10;stroke-width:12px;}.cls-2{fill:#efefef;}.cls-3{fill:#fff;}</style></defs><title>logo full</title><g id="Ebene_2" data-name="Ebene 2"><g id="svg62"><polygon class="cls-1" points="6 68.56 6 191.83 112.75 253.47 219.51 191.83 219.51 68.56 112.75 6.93 6 68.56"/><polygon class="cls-2" points="112.57 135.89 42.1 95.2 40.91 95.89 40.91 178.89 112.79 220.39 184.67 178.89 184.67 95.89 183.26 95.08 112.57 135.89"/><polygon class="cls-2" points="113.42 43.09 42.72 83.91 113.19 124.59 183.88 83.78 113.42 43.09"/><path class="cls-3" d="M303.21,105.15c14.66,0,26.56,11.9,26.56,27.33s-11.39,27.39-26.56,27.39c-15.61,0-26.62-12-26.62-27.39S288.69,105.15,303.21,105.15Zm0,43.07c9.6,0,13.57-7.87,13.57-15.74s-4.22-15.74-13.57-15.74-13.63,7.87-13.63,15.74S293.36,148.22,303.21,148.22Z"/><path class="cls-3" d="M374.38,144.76,379.5,155s-5.89,4.86-17.34,4.86c-14.91,0-28.61-12.16-28.61-27.26s13.63-27.45,28.61-27.45c11.46,0,17.34,4.86,17.34,4.86l-5.12,10.24A18.33,18.33,0,0,0,364,117c-12.1,0-17.41,8.45-17.41,15.49S351.92,148,364,148A18.33,18.33,0,0,0,374.38,144.76Z"/><path class="cls-3" d="M420.78,110.14l-4.86,9.6s-5.25-3.65-10.69-3.65c-4.1,0-6.27,1.86-6.27,4.74s5,5.06,11,7.62,12.35,7.49,12.35,14.4c0,12.61-9.6,17-19.9,17a30.85,30.85,0,0,1-19.84-7l6-10.11s7,6,12.93,6c2.62,0,7.62-.26,7.62-5.18,0-3.84-5.63-5.57-11.9-8.7s-10-8.06-10-13.57c0-9.85,8.7-16.13,17.21-16.13A30,30,0,0,1,420.78,110.14Z"/><path class="cls-3" d="M459.12,158.9h-12v-52.8h12v21.05h17V106.11h12v52.8h-12V137.72h-17Z"/><path class="cls-3" d="M520.94,105.15c14.66,0,26.56,11.9,26.56,27.33s-11.39,27.39-26.56,27.39c-15.61,0-26.62-12-26.62-27.39S506.41,105.15,520.94,105.15Zm0,43.07c9.6,0,13.57-7.87,13.57-15.74s-4.22-15.74-13.57-15.74-13.63,7.87-13.63,15.74S511.09,148.22,520.94,148.22Z"/><path class="cls-3" d="M589.48,110.14l-4.86,9.6s-5.25-3.65-10.69-3.65c-4.1,0-6.27,1.86-6.27,4.74s5,5.06,11,7.62S591,135.93,591,142.84c0,12.61-9.6,17-19.9,17a30.85,30.85,0,0,1-19.84-7l6-10.11s7,6,12.93,6c2.62,0,7.62-.26,7.62-5.18,0-3.84-5.63-5.57-11.9-8.7s-10-8.06-10-13.57c0-9.85,8.7-16.13,17.21-16.13A30,30,0,0,1,589.48,110.14Z"/><path class="cls-3" d="M591.09,106.11H628.2v10.56H615.66V158.9h-12V116.67H591.09Z"/><path class="cls-3" d="M645.42,158.9h-12v-52.8h12Z"/><path class="cls-3" d="M666,158.9h-12v-52.8h12l21,32.77h.13V106.11h12v52.8h-12l-21-32.77H666Z"/><path class="cls-3" d="M755.37,140.79c-2.88,13.38-14,19.07-24.38,19.07-14.21,0-25.73-12.22-25.73-27.33s10.88-27.39,25.73-27.39c9.28,0,15.74,3.46,20.35,9l-7.87,8.64c-3.07-4.93-7.1-6.78-11.77-6.78-7.42,0-13.44,7.36-13.44,16.51,0,9,6,16.25,13.44,16.25,5.76,0,11.46-3.71,11.46-10.18H731v-9.28h24.38Z"/><path class="cls-3" d="M814.38,110.14l-4.86,9.6s-5.25-3.65-10.69-3.65c-4.1,0-6.27,1.86-6.27,4.74s5,5.06,11,7.62,12.35,7.49,12.35,14.4c0,12.61-9.6,17-19.9,17a30.85,30.85,0,0,1-19.84-7l6-10.11s7,6,12.93,6c2.62,0,7.62-.26,7.62-5.18,0-3.84-5.63-5.57-11.9-8.7s-10-8.06-10-13.57c0-9.85,8.7-16.13,17.21-16.13A30,30,0,0,1,814.38,110.14Z"/><path class="cls-3" d="M852.59,116.67H834.41v10.5h17.41v10.56H834.41v10.62h18.17V158.9H822.38v-52.8h30.21Z"/><path class="cls-3" d="M879.21,106.11c9.79,0,17.21,5.31,17.21,15.68,0,7.94-4.35,13.25-10.82,15.29l18.17,21.82H888.49L872.36,138V158.9h-12v-52.8Zm-5.44,23.42c4.54,0,10-.32,10-6.91s-5.44-6.91-10-6.91h-1.41v13.82Z"/><path class="cls-3" d="M901.36,106.11h13.57l13.31,34.69,13.31-34.69h13.57L933,158.9H923.5Z"/><path class="cls-3" d="M970,158.9H958v-52.8h12Z"/><path class="cls-3" d="M1015,144.76l5.12,10.24s-5.89,4.86-17.34,4.86c-14.91,0-28.61-12.16-28.61-27.26s13.63-27.45,28.61-27.45c11.46,0,17.34,4.86,17.34,4.86L1015,120.25a18.33,18.33,0,0,0-10.37-3.26c-12.09,0-17.41,8.45-17.41,15.49S992.49,148,1004.59,148A18.33,18.33,0,0,0,1015,144.76Z"/><path class="cls-3" d="M1055.72,116.67h-18.17v10.5H1055v10.56h-17.41v10.62h18.17V158.9h-30.21v-52.8h30.21Z"/></g></g></svg>